<?xml version="1.0" encoding="UTF-8"?> <svg xmlns="http://www.w3.org/2000/svg" width="67" height="67" viewBox="0 0 67 67" fill="none"> <rect x="0.402344" y="0.775391" width="66" height="66" rx="3.83168" fill="#348A8E"></rect> <rect x="25.3789" y="18.6538" width="17.59" height="29.9339" fill="white"></rect> <path d="M33.4026 13.7163C22.3248 13.7163 13.3438 22.6974 13.3438 33.7751C13.3438 44.8529 22.3248 53.834 33.4026 53.834C44.4803 53.834 53.4614 44.8529 53.4614 33.7751C53.4614 22.6974 44.4803 13.7163 33.4026 13.7163ZM39.1643 41.6831C38.2893 42.7479 37.1502 43.4661 35.8212 43.8293C35.2434 43.9861 34.9792 44.2916 35.0122 44.8942C35.037 45.4885 35.0122 46.0746 35.004 46.6689C35.004 47.1972 34.7316 47.4779 34.2115 47.4944C33.8731 47.5026 33.5346 47.5109 33.1962 47.5109C32.899 47.5109 32.6019 47.5109 32.3047 47.5026C31.7434 47.4944 31.4792 47.1724 31.4792 46.6276C31.471 46.1984 31.471 45.7609 31.471 45.3317C31.4627 44.3741 31.4297 44.3411 30.5134 44.1925C29.3413 44.0027 28.1856 43.7385 27.1125 43.2185C26.2705 42.8057 26.1797 42.5994 26.4191 41.7079C26.6007 41.0475 26.7823 40.3871 26.9887 39.735C27.1373 39.2562 27.2776 39.0416 27.5335 39.0416C27.6821 39.0416 27.872 39.1159 28.1278 39.248C29.3165 39.8671 30.5795 40.2138 31.9085 40.3789C32.1314 40.4036 32.3542 40.4201 32.5771 40.4201C33.1962 40.4201 33.7988 40.3046 34.3849 40.0487C35.8625 39.4048 36.0936 37.6961 34.8471 36.6725C34.4262 36.3258 33.9391 36.0699 33.4356 35.8471C32.1396 35.2775 30.7941 34.8482 29.5724 34.1136C27.5913 32.9249 26.3366 31.2987 26.4852 28.8884C26.6503 26.1643 28.1939 24.4639 30.695 23.5559C31.7269 23.1844 31.7351 23.1927 31.7351 22.1196C31.7351 21.7563 31.7269 21.3931 31.7434 21.0217C31.7682 20.2127 31.9002 20.0724 32.7092 20.0476C32.8 20.0476 32.899 20.0476 32.9898 20.0476C33.1467 20.0476 33.3035 20.0476 33.4604 20.0476C33.5264 20.0476 33.5924 20.0476 33.6502 20.0476C35.1856 20.0476 35.1856 20.1137 35.1938 21.7729C35.2021 22.9945 35.2021 22.9945 36.4155 23.1844C37.3483 23.333 38.2316 23.6054 39.09 23.9851C39.5606 24.1915 39.7422 24.5217 39.5936 25.0252C39.3789 25.7681 39.1726 26.5193 38.9415 27.254C38.7929 27.6997 38.6525 27.9061 38.3884 27.9061C38.2398 27.9061 38.0582 27.8483 37.8271 27.7327C36.6384 27.1549 35.3919 26.8742 34.0877 26.8742C33.9226 26.8742 33.7493 26.8825 33.5842 26.8907C33.1962 26.9155 32.8165 26.965 32.4533 27.1219C31.1656 27.6832 30.9592 29.103 32.0571 29.978C32.6101 30.4237 33.2457 30.7374 33.8979 31.0098C35.037 31.4803 36.1761 31.9343 37.2575 32.5287C40.6584 34.4273 41.5829 38.7444 39.1643 41.6831Z" fill="#FF5B14"></path> </svg> 