<?xml version="1.0" encoding="UTF-8"?> <svg xmlns="http://www.w3.org/2000/svg" width="68" height="63" viewBox="0 0 68 63" fill="none"> <rect width="68" height="63" rx="3.83168" fill="#348A8E"></rect> <rect x="23.625" y="21.6064" width="22.4457" height="20.4416" fill="white"></rect> <path d="M52.6424 16.0031C52.5653 15.4482 52.1671 14.9917 51.6288 14.8417L34.3755 10.031C34.1296 9.96233 33.8698 9.96233 33.6236 10.031L16.3704 14.8417C15.8321 14.9917 15.4338 15.448 15.3568 16.0031C15.2567 16.7246 12.9738 33.771 18.8293 42.2511C24.6779 50.721 33.3058 52.8916 33.6702 52.9799C33.7785 53.0062 33.8888 53.0191 33.9996 53.0191C34.1103 53.0191 34.2207 53.006 34.329 52.9799C34.6935 52.8916 43.3214 50.721 49.1698 42.2511C55.0254 33.7712 52.7424 16.7248 52.6424 16.0031ZM45.1257 25.955L33.3573 37.7543C33.0834 38.0288 32.7243 38.1663 32.3653 38.1663C32.0064 38.1663 31.6473 38.029 31.3734 37.7543L24.0971 30.4589C23.8339 30.1952 23.6862 29.8374 23.6862 29.4644C23.6862 29.0914 23.8341 28.7335 24.0971 28.4699L25.5419 27.0213C26.0897 26.4722 26.978 26.472 27.5257 27.0213L32.3653 31.8737L41.6971 22.5172C41.9601 22.2534 42.317 22.1052 42.689 22.1052C43.0611 22.1052 43.418 22.2534 43.6809 22.5172L45.1257 23.9658C45.6736 24.5151 45.6736 25.4057 45.1257 25.955Z" fill="#FF5B14"></path> </svg> 