<?xml version="1.0" encoding="UTF-8"?> <svg xmlns="http://www.w3.org/2000/svg" width="21" height="20" viewBox="0 0 21 20" fill="none"> <circle cx="10.875" cy="10" r="7.5" fill="white"></circle> <path fill-rule="evenodd" clip-rule="evenodd" d="M10.25 20C4.72715 20 0.25 15.5228 0.25 10C0.25 4.47715 4.72715 0 10.25 0C15.7728 0 20.25 4.47715 20.25 10C20.25 15.5228 15.7728 20 10.25 20ZM10.6824 7.50461C9.78678 7.87713 7.9968 8.64816 5.31245 9.81768C4.87655 9.99103 4.64821 10.1606 4.62742 10.3264C4.59229 10.6066 4.94322 10.717 5.42109 10.8673C5.48609 10.8877 5.55344 10.9089 5.62249 10.9313C6.09264 11.0841 6.72507 11.2629 7.05385 11.27C7.35208 11.2765 7.68494 11.1535 8.05243 10.9012C10.5605 9.20817 11.8552 8.35243 11.9365 8.33399C11.9938 8.32097 12.0733 8.30461 12.1271 8.35246C12.181 8.40032 12.1757 8.49095 12.17 8.51526C12.1352 8.66346 10.7577 9.94412 10.0448 10.6069C9.82259 10.8135 9.66495 10.96 9.63272 10.9935C9.56054 11.0685 9.48697 11.1394 9.41626 11.2076C8.97948 11.6286 8.65193 11.9444 9.43439 12.46C9.81041 12.7078 10.1113 12.9127 10.4115 13.1171C10.7393 13.3404 11.0663 13.563 11.4893 13.8404C11.5971 13.911 11.7001 13.9844 11.8003 14.0559C12.1818 14.3279 12.5246 14.5722 12.948 14.5332C13.1941 14.5106 13.4482 14.2792 13.5773 13.5892C13.8824 11.9584 14.482 8.42506 14.6206 6.96904C14.6327 6.84147 14.6174 6.67821 14.6052 6.60655C14.5929 6.53488 14.5673 6.43277 14.4741 6.35718C14.3638 6.26766 14.1935 6.24878 14.1173 6.25006C13.771 6.25623 13.2396 6.44099 10.6824 7.50461Z" fill="#FF5B14"></path> </svg> 